<?xml version="1.0" encoding="UTF-8"?>
<!DOCTYPE svg PUBLIC "-//W3C//DTD SVG 1.1//EN" "http://www.w3.org/Graphics/SVG/1.1/DTD/svg11.dtd">
<svg xmlns="http://www.w3.org/2000/svg" version="1.1" width="512px" height="512px" style="shape-rendering:geometricPrecision; text-rendering:geometricPrecision; image-rendering:optimizeQuality; fill-rule:evenodd; clip-rule:evenodd" xmlns:xlink="http://www.w3.org/1999/xlink">
<g><path style="opacity:0.99" fill="#000000" d="M 251.5,31.5 C 254.187,31.3359 256.854,31.5026 259.5,32C 261.333,32.5 262.5,33.6667 263,35.5C 263.5,65.8315 263.667,96.1648 263.5,126.5C 286.167,126.5 308.833,126.5 331.5,126.5C 331.333,99.4979 331.5,72.4979 332,45.5C 333.736,38.7634 337.903,34.2634 344.5,32C 369.5,31.3333 394.5,31.3333 419.5,32C 426.07,34.238 430.237,38.738 432,45.5C 432.667,185.5 432.667,325.5 432,465.5C 430.264,472.237 426.097,476.737 419.5,479C 394.5,479.667 369.5,479.667 344.5,479C 337.455,476.623 333.288,471.79 332,464.5C 331.5,437.835 331.333,411.169 331.5,384.5C 308.833,384.5 286.167,384.5 263.5,384.5C 263.667,414.835 263.5,445.168 263,475.5C 261.471,478.516 258.971,479.849 255.5,479.5C 252.029,479.849 249.529,478.516 248,475.5C 247.5,425.834 247.333,376.168 247.5,326.5C 224.833,326.5 202.167,326.5 179.5,326.5C 179.667,358.835 179.5,391.168 179,423.5C 177.167,430.667 172.667,435.167 165.5,437C 141.167,437.667 116.833,437.667 92.5,437C 84.8858,435.053 80.3858,430.22 79,422.5C 78.3333,310.833 78.3333,199.167 79,87.5C 80.8333,80.3333 85.3333,75.8333 92.5,74C 116.833,73.3333 141.167,73.3333 165.5,74C 172.667,75.8333 177.167,80.3333 179,87.5C 179.5,119.832 179.667,152.165 179.5,184.5C 202.167,184.5 224.833,184.5 247.5,184.5C 247.333,134.832 247.5,85.1655 248,35.5C 248.69,33.6498 249.856,32.3164 251.5,31.5 Z"/></g>
</svg>
